<svg width="17" height="21" viewBox="0 0 17 21" fill="none" xmlns="http://www.w3.org/2000/svg">
<path d="M10.6562 0.635742C12.1277 0.635742 13.3503 1.76125 13.3746 3.1938L13.375 3.2373V4.13574H13.8008C15.2342 4.13574 16.4066 5.25305 16.4947 6.66426L16.5 6.83496V17.7607C16.5 19.3486 15.2128 20.6357 13.625 20.6357H2.69922C1.20848 20.6357 0 19.4273 0 17.9365V6.83496C0 5.34422 1.20848 4.13574 2.69922 4.13574H3.125V3.2373C3.125 1.79864 4.33286 0.65874 5.79924 0.636086L10.6562 0.635742ZM13.8008 6.13574H13.375V7.88574C13.375 8.43803 12.9273 8.88574 12.375 8.88574C11.8331 8.88574 11.3919 8.45476 11.3755 7.91689L11.375 6.13574H5.125V7.88574C5.125 8.43803 4.67728 8.88574 4.125 8.88574C3.58314 8.88574 3.14193 8.45476 3.12548 7.91689L3.125 6.13574H2.69922C2.34523 6.13574 2.05268 6.39879 2.00638 6.74008L2 6.83496V17.9365C2 18.3227 2.31305 18.6357 2.69922 18.6357H13.625C14.1082 18.6357 14.5 18.244 14.5 17.7607V6.83496C14.5 6.44879 14.1869 6.13574 13.8008 6.13574ZM10.687 2.63627L5.84375 2.63574C5.44194 2.63574 5.1404 2.90736 5.12557 3.21368L5.125 4.13574H11.375V3.2373C11.375 2.92936 11.0835 2.65005 10.687 2.63627Z" fill="#17479E"/>
</svg>
