<svg width="20" height="21" viewBox="0 0 20 21" fill="none" xmlns="http://www.w3.org/2000/svg">
<path fill-rule="evenodd" clip-rule="evenodd" d="M2 9.5647C2 5.6987 5.13401 2.5647 9 2.5647C12.866 2.5647 16 5.6987 16 9.5647C16 11.4506 15.2542 13.1624 14.0414 14.421C14.0072 14.4474 13.9743 14.4762 13.9429 14.5076C13.9115 14.5389 13.8827 14.5719 13.8563 14.6061C12.5977 15.8189 10.8859 16.5647 9 16.5647C5.13401 16.5647 2 13.4307 2 9.5647ZM14.6177 16.5966C13.078 17.8282 11.125 18.5647 9 18.5647C4.02944 18.5647 0 14.5353 0 9.5647C0 4.59413 4.02944 0.564697 9 0.564697C13.9706 0.564697 18 4.59413 18 9.5647C18 11.6897 17.2635 13.6427 16.0319 15.1824L19.7071 18.8576C20.0976 19.2481 20.0976 19.8813 19.7071 20.2718C19.3166 20.6623 18.6834 20.6623 18.2929 20.2718L14.6177 16.5966Z" fill="#D5D5D5"/>
</svg>
