<svg width="17" height="20" viewBox="0 0 17 20" fill="none" xmlns="http://www.w3.org/2000/svg">
<path d="M9 0.698242C11.7269 0.698242 13.9375 2.90884 13.9375 5.63574C13.9375 7.14272 13.2624 8.49201 12.1981 9.39767L12.0568 9.51274C14.9163 10.5759 16.9375 13.0312 16.9375 15.9334V16.7607C16.9375 18.314 15.6783 19.5732 14.125 19.5732H3.625C2.0717 19.5732 0.8125 18.314 0.8125 16.7607V15.9334C0.8125 12.9729 2.91569 10.4775 5.86652 9.45038C4.76485 8.54583 4.0625 7.17281 4.0625 5.63574C4.0625 2.90884 6.27309 0.698242 9 0.698242ZM8.875 10.8232C5.42678 10.8232 2.6875 13.1483 2.6875 15.9334V16.7607C2.6875 17.2785 3.10723 17.6982 3.625 17.6982H14.125C14.6428 17.6982 15.0625 17.2785 15.0625 16.7607V15.9334C15.0625 13.1483 12.3232 10.8232 8.875 10.8232ZM9 2.57324C7.30863 2.57324 5.9375 3.94437 5.9375 5.63574C5.9375 7.32711 7.30863 8.69824 9 8.69824C10.6914 8.69824 12.0625 7.32711 12.0625 5.63574C12.0625 3.94437 10.6914 2.57324 9 2.57324Z" fill="#17479E"/>
</svg>
